<svg width="13" height="13" viewBox="0 0 13 13" fill="none" xmlns="http://www.w3.org/2000/svg">
<path d="M10.5714 3.39945L1.69074 12.2803C1.48438 12.4865 1.25414 12.5847 1.00002 12.5748C0.745903 12.5649 0.515743 12.4568 0.309542 12.2506C0.103181 12.0443 0 11.8091 0 11.545C0 11.281 0.103181 11.0458 0.309542 10.8395L9.16047 1.98854H1.79065C1.51193 1.98854 1.27658 1.89303 1.08459 1.702C0.892448 1.51081 0.796375 1.27658 0.796375 0.999303C0.796375 0.722025 0.892448 0.486114 1.08459 0.291573C1.27658 0.0971906 1.51193 0 1.79065 0H11.5656C11.8444 0 12.0798 0.0959935 12.2719 0.28798C12.4639 0.480125 12.5599 0.715556 12.5599 0.994271V10.7693C12.5599 11.048 12.4644 11.2834 12.2734 11.4756C12.0822 11.6675 11.848 11.7635 11.5707 11.7635C11.2934 11.7635 11.0576 11.6675 10.8632 11.4756C10.6686 11.2834 10.5714 11.048 10.5714 10.7693V3.39945Z" fill="white"/>
</svg>
