<svg width="48" height="48" viewBox="0 0 48 48" fill="none" xmlns="http://www.w3.org/2000/svg">
<mask id="mask0_3296_5461" style="mask-type:alpha" maskUnits="userSpaceOnUse" x="0" y="0" width="48" height="48">
<rect width="48" height="48" fill="#D9D9D9"/>
</mask>
<g mask="url(#mask0_3296_5461)">
<path d="M8.1345 35.269C7.81317 35.269 7.54383 35.1593 7.3265 34.94C7.10883 34.7206 7 34.449 7 34.125C7 33.8006 7.10883 33.532 7.3265 33.319C7.54383 33.1063 7.81317 33 8.1345 33H39.8655C40.1868 33 40.4562 33.1096 40.6735 33.329C40.8912 33.5483 41 33.8201 41 34.1445C41 34.4685 40.8912 34.737 40.6735 34.95C40.4562 35.1626 40.1868 35.269 39.8655 35.269H8.1345ZM8.1345 25.1345C7.81317 25.1345 7.54383 25.0248 7.3265 24.8055C7.10883 24.5861 7 24.3143 7 23.99C7 23.666 7.10883 23.3975 7.3265 23.1845C7.54383 22.9718 7.81317 22.8655 8.1345 22.8655H39.8655C40.1868 22.8655 40.4562 22.9751 40.6735 23.1945C40.8912 23.4138 41 23.6856 41 24.01C41 24.334 40.8912 24.6025 40.6735 24.8155C40.4562 25.0281 40.1868 25.1345 39.8655 25.1345H8.1345ZM8.1345 15C7.81317 15 7.54383 14.8903 7.3265 14.671C7.10883 14.4516 7 14.1798 7 13.8555C7 13.5315 7.10883 13.263 7.3265 13.05C7.54383 12.8373 7.81317 12.731 8.1345 12.731H39.8655C40.1868 12.731 40.4562 12.8406 40.6735 13.06C40.8912 13.2793 41 13.551 41 13.875C41 14.1993 40.8912 14.468 40.6735 14.681C40.4562 14.8936 40.1868 15 39.8655 15H8.1345Z" fill="#3DCFB6"/>
</g>
</svg>
