<svg width="27" height="22" viewBox="0 0 27 22" fill="none" xmlns="http://www.w3.org/2000/svg">
<path d="M2.66667 21.3333C1.93333 21.3333 1.30556 21.0722 0.783333 20.55C0.261111 20.0278 0 19.4 0 18.6667V2.66667C0 1.93333 0.261111 1.30556 0.783333 0.783333C1.30556 0.261111 1.93333 0 2.66667 0H24C24.7333 0 25.3611 0.261111 25.8833 0.783333C26.4056 1.30556 26.6667 1.93333 26.6667 2.66667V18.6667C26.6667 19.4 26.4056 20.0278 25.8833 20.55C25.3611 21.0722 24.7333 21.3333 24 21.3333H2.66667ZM13.3333 11.7667C13.4444 11.7667 13.5611 11.75 13.6833 11.7167C13.8056 11.6833 13.9222 11.6333 14.0333 11.5667L23.4667 5.66667C23.6444 5.55556 23.7778 5.41667 23.8667 5.25C23.9556 5.08333 24 4.9 24 4.7C24 4.25556 23.8111 3.92222 23.4333 3.7C23.0556 3.47778 22.6667 3.48889 22.2667 3.73333L13.3333 9.33333L4.4 3.73333C4 3.48889 3.61111 3.48333 3.23333 3.71667C2.85556 3.95 2.66667 4.27778 2.66667 4.7C2.66667 4.92222 2.71111 5.11667 2.8 5.28333C2.88889 5.45 3.02222 5.57778 3.2 5.66667L12.6333 11.5667C12.7444 11.6333 12.8611 11.6833 12.9833 11.7167C13.1056 11.75 13.2222 11.7667 13.3333 11.7667Z" fill="#3DCFB6"/>
</svg>
